<?xml version="1.0" standalone="no"?>
<!DOCTYPE svg PUBLIC "-//W3C//DTD SVG 20010904//EN"
 "http://www.w3.org/TR/2001/REC-SVG-20010904/DTD/svg10.dtd">
<svg version="1.0" xmlns="http://www.w3.org/2000/svg"
 width="700.000000pt" height="700.000000pt" viewBox="0 0 700.000000 700.000000"
 preserveAspectRatio="xMidYMid meet">
<metadata>
Created by potrace 1.11, written by Peter Selinger 2001-2013
</metadata>
<g transform="translate(0.000000,700.000000) scale(0.100000,-0.100000)"
fill="#000000" stroke="none">
<path d="M3130 6954 c-826 -91 -1623 -492 -2177 -1094 -497 -542 -793 -1174
-898 -1921 -22 -157 -31 -561 -15 -731 53 -591 252 -1158 577 -1640 592 -882
1542 -1439 2601 -1529 178 -15 561 -6 722 16 679 94 1285 361 1795 790 119
101 328 308 422 420 425 504 695 1118 788 1795 22 160 31 563 16 731 -105
1152 -757 2169 -1756 2734 -380 216 -798 354 -1266 420 -165 24 -631 29 -809
9z m535 -1219 c77 -20 144 -40 148 -44 4 -4 -21 -115 -57 -247 -36 -131 -62
-242 -58 -245 10 -9 331 -93 336 -88 2 2 32 110 67 239 34 129 65 238 68 241
6 7 315 -72 325 -82 3 -2 -24 -112 -60 -244 -35 -132 -62 -245 -60 -251 2 -5
23 -16 46 -23 153 -46 346 -158 455 -265 232 -227 297 -564 174 -900 -85 -232
-257 -403 -486 -480 l-65 -22 70 -56 c200 -162 300 -419 272 -697 -44 -424
-330 -749 -750 -853 -123 -31 -324 -30 -478 1 -62 13 -116 21 -119 18 -2 -3
-34 -112 -69 -243 -35 -130 -65 -238 -66 -239 -4 -3 -319 83 -325 88 -2 3 25
114 61 248 36 134 64 244 63 245 -7 5 -316 84 -329 84 -16 0 -30 -45 -109
-349 -18 -68 -38 -125 -45 -128 -9 -3 -313 72 -321 81 -1 1 27 112 63 245 36
134 64 245 62 247 -4 3 -248 69 -518 141 -74 19 -136 36 -138 38 -5 5 110 429
119 439 5 6 48 -1 108 -17 116 -31 182 -34 230 -9 79 40 68 5 366 1121 299
1114 290 1073 244 1148 -29 46 -87 76 -210 108 l-106 27 29 107 c15 58 42 159
59 224 18 64 36 117 42 117 6 0 154 -39 330 -86 175 -47 321 -83 324 -81 2 3
31 105 64 228 33 123 62 232 65 242 3 11 12 16 22 13 9 -3 80 -21 157 -41z"/>
<path d="M3575 4708 c-12 -32 -226 -840 -223 -842 9 -7 629 -166 663 -171 54
-7 147 9 204 37 99 47 191 172 227 305 8 32 15 96 15 143 1 185 -84 301 -269
370 -29 11 -171 52 -315 90 -144 39 -270 73 -280 76 -9 3 -19 0 -22 -8z"/>
<path d="M3215 3368 c-17 -49 -254 -952 -251 -955 2 -2 154 -45 337 -95 321
-87 338 -91 444 -92 106 -1 113 0 178 33 155 75 270 261 292 471 8 81 -13 191
-51 260 -39 71 -121 145 -206 185 -61 28 -687 205 -727 205 -7 0 -14 -6 -16
-12z"/>
</g>
</svg>
