<?xml version="1.0"?>
<svg width="1024" height="1024" xmlns="http://www.w3.org/2000/svg">

 <g>
  <title>GitHub</title>
  <rect fill="none" id="canvas_background" height="402" width="582" y="-1" x="-1"/>
 </g>
 <g>
  <title>GitHub</title>
  <path fill="#ffffff" id="svg_1" d="m512,0c-282.75,0 -512,229.25 -512,512c0,226.25 146.688004,418.125 350.156006,485.812012c25.593994,4.687988 34.938019,-11.125 34.938019,-24.625c0,-12.187988 -0.469025,-52.562012 -0.719025,-95.312012c-142.375,30.937012 -172.468994,-60.375 -172.468994,-60.375c-23.311996,-59.125 -56.844009,-74.875 -56.844009,-74.875c-46.530983,-31.75 3.529999,-31.125 3.529999,-31.125c51.406006,3.562012 78.470016,52.75 78.470016,52.75c45.687988,78.25 119.875,55.625 149,42.5c4.653992,-33 17.903992,-55.625 32.5,-68.375c-113.656006,-12.937012 -233.218018,-56.875 -233.218018,-253.062988c0,-55.937988 19.968994,-101.561981 52.655991,-137.406006c-5.218994,-13 -22.843994,-65.093994 5.062012,-135.561996c0,0 42.938004,-13.75 140.811996,52.500015c40.812012,-11.406021 84.593994,-17.031021 128.125,-17.219009c43.499969,0.187988 87.311981,5.875 128.188019,17.280991c97.687988,-66.311996 140.687988,-52.5 140.687988,-52.5c28,70.531006 10.375,122.562012 5.125,135.5c32.812012,35.843994 52.625,81.468994 52.625,137.406006c0,196.687988 -119.75,240 -233.812012,252.687988c18.437988,15.875 34.75,47 34.75,94.75c0,68.438049 -0.687988,123.625 -0.687988,140.5c0,13.625 9.312012,29.562012 35.25,24.562012c203.312988,-67.812012 349.875,-259.687012 349.875,-485.812012c0,-282.75 -229.25,-512 -512,-512z"/>
 </g>
</svg>
